<?xml version="1.0" encoding="utf-8"?>
<!-- Generator: Adobe Illustrator 16.0.0, SVG Export Plug-In . SVG Version: 6.00 Build 0)  -->
<!DOCTYPE svg PUBLIC "-//W3C//DTD SVG 1.1//EN" "http://www.w3.org/Graphics/SVG/1.1/DTD/svg11.dtd">
<svg version="1.1" id="Layer_1" xmlns="http://www.w3.org/2000/svg" xmlns:xlink="http://www.w3.org/1999/xlink" x="0px" y="0px"
	  viewBox="0 0 210 60" enable-background="new 0 0 210 60" xml:space="preserve">
<path fill="#ffffff" d="M1.397,23.226l8.449-8.299v4.693h7.188v4.048H9.846v11.125c0,2.6,1.078,3.897,3.235,3.897
	c1.615,0,3.319-0.534,5.114-1.608v4.205c-1.729,0.969-3.616,1.453-5.658,1.453c-2.058,0-3.771-0.602-5.138-1.803
	c-0.429-0.36-0.783-0.771-1.063-1.223c-0.279-0.451-0.515-1.045-0.703-1.777c-0.189-0.735-0.284-2.127-0.284-4.187V23.668H1.397
	V23.226z"/>
<path fill="#ffffff" d="M35.241,42.348v-2.914c-0.956,1.044-2.047,1.86-3.273,2.439c-1.228,0.58-2.45,0.869-3.669,0.869
	c-1.433,0-2.754-0.355-3.965-1.074c-1.21-0.717-2.125-1.688-2.742-2.914c-0.618-1.227-0.927-3.267-0.927-6.113V19.62h4.496v12.954
	c0,2.385,0.342,4.049,1.025,4.997c0.684,0.943,1.881,1.416,3.595,1.416c2.14,0,3.961-1.045,5.459-3.137V19.62h4.496v22.728H35.241z"
	/>
<path fill="#ffffff" d="M56.646,19.176c-2.173,0-4.348,1.131-6.521,4.637l-0.248,0.396V19.62h-4.521v22.728h4.521V30.464
	c0-1.895,0.532-3.532,1.595-4.917c1.062-1.382,2.318-2.072,3.767-2.072c1.328,0,2.773,0.022,4.33,1.495v-4.978
	C58.573,19.455,57.598,19.176,56.646,19.176"/>
<path fill="#ffffff" d="M67.307,19.62v2.889c2.008-2.222,4.29-3.333,6.842-3.333c1.417,0,2.735,0.365,3.953,1.098
	c1.22,0.734,2.145,1.738,2.778,3.015c0.635,1.276,0.953,3.298,0.953,6.064v12.995h-4.497V29.402c0-2.322-0.354-3.98-1.061-4.979
	c-0.709-0.995-1.895-1.493-3.558-1.493c-2.125,0-3.928,1.062-5.41,3.184v16.233h-4.595V19.62H67.307z"/>
<path fill="#ffffff" d="M87.259,19.621h4.497v22.728h-4.497V19.621z M89.482,11.999c0.742,0,1.375,0.255,1.902,0.765
	c0.528,0.512,0.792,1.136,0.792,1.877c0,0.725-0.264,1.351-0.792,1.877c-0.527,0.527-1.16,0.792-1.902,0.792
	c-0.692,0-1.301-0.269-1.828-0.804c-0.528-0.534-0.791-1.156-0.791-1.866c0-0.692,0.263-1.306,0.791-1.84
	C88.181,12.267,88.791,11.999,89.482,11.999"/>
<path fill="#ffffff" d="M94.392,23.226l8.449-8.299v4.693h7.191v4.048h-7.191v11.125c0,2.6,1.081,3.897,3.236,3.897
	c1.615,0,3.32-0.534,5.114-1.608v4.205c-1.727,0.969-3.614,1.453-5.658,1.453c-2.058,0-3.772-0.602-5.138-1.803
	c-0.429-0.36-0.782-0.771-1.063-1.223c-0.278-0.451-0.514-1.045-0.704-1.777c-0.188-0.735-0.283-2.127-0.283-4.187V23.668h-3.954
	V23.226z"/>
<path fill="#ffffff" d="M114.081,19.621h4.497v22.728h-4.497V19.621z M116.305,11.999c0.74,0,1.373,0.255,1.903,0.765
	c0.527,0.512,0.789,1.136,0.789,1.877c0,0.725-0.262,1.351-0.789,1.877c-0.53,0.527-1.163,0.792-1.903,0.792
	c-0.69,0-1.3-0.269-1.828-0.804c-0.527-0.534-0.79-1.156-0.79-1.866c0-0.692,0.263-1.306,0.79-1.84
	C115.005,12.267,115.614,11.999,116.305,11.999"/>
<path fill="#ffffff" d="M128.693,19.62v2.889c2.011-2.222,4.29-3.333,6.846-3.333c1.416,0,2.734,0.365,3.954,1.098
	c1.218,0.734,2.141,1.738,2.775,3.015c0.636,1.276,0.954,3.298,0.954,6.064v12.995h-4.496V29.402c0-2.322-0.354-3.98-1.062-4.979
	c-0.71-0.995-1.896-1.493-3.56-1.493c-2.125,0-3.929,1.062-5.412,3.184v16.233h-4.592V19.62H128.693z"/>
<path fill="#ffffff" d="M204.595,12.198c-3.073-3.808-8.769-4.799-15.529-3.398c5.62-1.128,11.696,0.542,13.973,3.364
	c4.996,6.186,0.06,21.009-13.122,31.656c-12.154,9.812-26.705,13.593-31.305,7.886c-3.172-3.937-0.842-11.739,3.242-15.848
	l6.497,6.484h11.915c5.825-12.455,9.079-26.352,9.079-41.008h-31.236c0,9.081-1.834,17.75-5.168,25.616l0,0l0,0c0,0,0,0,0,0
	l0.271,0.271l6.195,6.198c-5.461,5.475-7.966,14.533-3.578,20.441c1.347,1.812,3.411,2.895,5.809,3.442
	c7.22,1.65,18.578-2.42,28.603-10.513C204.592,35.198,210.709,19.771,204.595,12.198z M161.45,4.776l24.707-0.001
	c-0.428,12.144-3.165,23.619-7.786,34.164h-10.021V26.95h-11.731C159.393,20.011,161.073,12.612,161.45,4.776z"/>
</svg>
