<svg width="20" height="20" fill="none" xmlns="http://www.w3.org/2000/svg">
    <path d="M17.172 19H2.827c-1.236 0-1.236-15.3 0-15.3h14.345c1.237 0 1.237 15.3 0 15.3z" fill="url(#paint0_linear)"/>
    <path d="M3.67 19h-.576a99.695 99.695 0 010-15.3h.575c-.359 5.092-.359 10.208 0 15.3zm2.302 0h-.576a149.42 149.42 0 010-15.3h.576a170.635 170.635 0 000 15.3zm2.302 0h-.576c-.119-4.625-.13-9.27-.032-13.898h.583A397.47 397.47 0 008.274 19zm4.028 0h-.575c.089-4.625.097-9.27.024-13.898h.584c.097 4.628.086 9.273-.033 13.898zm2.302 0h-.575c.228-5.092.228-10.208 0-15.3h.575c.261 5.092.261 10.208 0 15.3zm2.302 0h-.575c.359-5.092.359-10.208 0-15.3h.575a99.7 99.7 0 010 15.3z" fill="#F2F5F7"/>
    <path d="M10 5.106c-4.343 0-3.797-3.66-3.797-3.66.652-.601 7.07-.588 7.594 0 0 0 .546 3.66-3.797 3.66z" fill="#CFD8DD"/>
    <path d="M13.565 4.296c0 1.83-7.13 1.83-7.13 0-.001-1.22 7.13-1.22 7.13 0z" fill="#96A7AB"/>
    <path d="M6.163 3.7H4.24s1.142 3.574 1.71 6.75L10 5.95V5.5s-3.837.262-3.837-1.8zm7.673 0h1.924s-1.142 3.309-1.71 6.75L10 5.95V5.5s3.836.262 3.836-1.8z" fill="#96A7AB"/>
    <path d="M6.203 1.9L4.937 3.703S5.57 4.95 6.203 8.865L10 5.56S6.203 4.09 6.203 1.9zm7.593 0l1.266 1.803s-.633 1.247-1.265 5.162L10 5.56s3.796-1.47 3.796-3.66z" fill="#fff"/>
    <path d="M10.675 7.975a.675.675 0 11-1.35 0 .675.675 0 011.35 0zm0 4.5a.675.675 0 11-1.35 0 .675.675 0 011.35 0zm0 4.5a.675.675 0 11-1.35 0 .675.675 0 011.35 0z" fill="#616C6F"/>
    <defs>
        <linearGradient id="paint0_linear" x1="10" y1="19" x2="10" y2="3.7" gradientUnits="userSpaceOnUse">
            <stop stop-color="#C9D1D6"/>
            <stop offset="1" stop-color="#E6EBEF"/>
        </linearGradient>
    </defs>
</svg>
